PathFileType	4	(X/Y/Z)	/Users/itak/Documents/Research/Walk-IL/dataset/trc/00213_00009.trc
DataRate	CameraRate	NumFrames	NumMarkers	Units	OrigDataRate	OrigDataStartFrame	OrigNumFrames
100.000000	100.000000	4	55	mm	100.000000	313	418
Frame#	Time	RPSI			LPSI			L3			STRN			T10			C7			CLAV			RBAK			LBAK			LSHO			LUPA			LAEL			LAOL			LWTS			LWPS			LFRA			LIFD			LHPS			LHTS			RSHO			RUPA			RAEL			RAOL			RWTS			RWPS			RFRA			RIFD			RHTS			RHPS			RBHD			LFHD			RFHD			LBHD			LHIP			RHIP			RASI			LASI			LKNE			LTHI			LANK			LTIP			LTOE			LMT1			LMT5			LHEE			RKNE			RTHI			RANK			RTIP			RTOE			RMT1			RMT5			RHEE			*53			*54			
		X1	Y1	Z1	X2	Y2	Z2	X3	Y3	Z3	X4	Y4	Z4	X5	Y5	Z5	X6	Y6	Z6	X7	Y7	Z7	X8	Y8	Z8	X9	Y9	Z9	X10	Y10	Z10	X11	Y11	Z11	X12	Y12	Z12	X13	Y13	Z13	X14	Y14	Z14	X15	Y15	Z15	X16	Y16	Z16	X17	Y17	Z17	X18	Y18	Z18	X19	Y19	Z19	X20	Y20	Z20	X21	Y21	Z21	X22	Y22	Z22	X23	Y23	Z23	X24	Y24	Z24	X25	Y25	Z25	X26	Y26	Z26	X27	Y27	Z27	X28	Y28	Z28	X29	Y29	Z29	X30	Y30	Z30	X31	Y31	Z31	X32	Y32	Z32	X33	Y33	Z33	X34	Y34	Z34	X35	Y35	Z35	X36	Y36	Z36	X37	Y37	Z37	X38	Y38	Z38	X39	Y39	Z39	X40	Y40	Z40	X41	Y41	Z41	X42	Y42	Z42	X43	Y43	Z43	X44	Y44	Z44	X45	Y45	Z45	X46	Y46	Z46	X47	Y47	Z47	X48	Y48	Z48	X49	Y49	Z49	X50	Y50	Z50	X51	Y51	Z51	X52	Y52	Z52	X53	Y53	Z53	X54	Y54	Z54	X55	Y55	Z55	

314	3.13	432.9040222167969	1015.673278808594	-168.1915588378906	441.0378112792969	1027.943481445312	-286.2363586425781	431.8012390136719	1115.975341796875	-247.8794555664062	681.84716796875	1309.64501953125	-221.5627136230469	424.8529968261719	1243.619506835938	-246.5122375488281	484.4804992675781	1505.359375	-245.4238891601562	652.3001708984375	1427.345092773438	-222.0542449951172	405.730712890625	1366.68310546875	-178.5408477783203	478.9242248535156	1470.249267578125	-359.3592834472656	575.9520874023438	1474.508544921875	-394.2974243164062	586.9840087890625	1367.37841796875	-481.6840515136719	681.536376953125	1183.630615234375	-518.714599609375	611.146240234375	1133.682373046875	-502.6592712402344	848.048828125	1014.701965332031	-424.3789978027344	862.9378051757812	999.6851806640625	-506.0673217773438	754.89697265625	1101.46826171875	-520.9313354492188	960.64306640625	853.241943359375	-423.3926696777344	920.5708618164062	932.177001953125	-492.1382751464844	935.333984375	949.6348266601562	-428.1292724609375	525.0835571289062	1470.590087890625	-71.67836761474609	499.2738037109375	1408.821899414062	-5.034995079040527	474.2879028320312	1132.1875	47.7884635925293	445.7675170898438	1121.984741210938	-41.74221038818359	617.488525390625	920.2232055664062	14.17309284210205	564.949951171875	904.914306640625	77.18759918212891	503.1881103515625	1064.078979492188	63.74483489990234	638.485107421875	728.5283813476562	11.76173305511475	662.0391845703125	801.4105224609375	33.52328491210938	608.388671875	799.6107177734375	81.82099151611328	509.7952270507812	1657.541870117188	-188.1345825195312	715.4322509765625	1708.862426757812	-270.2203979492188	708.6920166015625	1708.02392578125	-170.3549499511719	562.75634765625	1666.420166015625	-317.3532409667969	554.3323364257812	980.4151611328125	-421.8791809082031	527.4265747070312	982.3214721679688	-56.54729461669922	621.091064453125	1037.098510742188	-87.07077026367188	648.9846801757812	1026.375854492188	-365.81591796875	586.798095703125	498.3966979980469	-352.479248046875	590.958251953125	642.9986572265625	-387.8728637695312	426.7236633300781	38.16640853881836	-325.0204772949219	506.4667053222656	276.2838439941406	-350.0557861328125	634.0120239257812	34.94900894165039	-243.5604858398438	559.5765380859375	32.51474761962891	-210.7413940429688	554.2806396484375	31.04787254333496	-328.10595703125	359.9928894042969	54.41900634765625	-282.9071655273438	737.1390380859375	532.1511840820312	-60.32456970214844	640.579833984375	784.2775268554688	-36.2484130859375	763.1444091796875	32.57657241821289	-75.8099365234375	771.3087768554688	416.6484680175781	-70.13455200195312	967.7041625976562	82.10206604003906	-85.51100158691406	920.79052734375	70.21869659423828	-136.7849426269531	866.8294677734375	44.7192268371582	-35.73256301879883	709.18310546875	27.75861549377441	-139.7600250244141	nan	nan	nan	nan	nan	nan	
315	3.14	441.7330627441406	1013.932312011719	-167.0841522216797	449.5326232910156	1026.439086914062	-285.0877380371094	440.0957641601562	1114.459838867188	-246.8542633056641	689.877197265625	1308.457153320312	-220.9573974609375	432.9390869140625	1242.183959960938	-245.4105224609375	492.33056640625	1504.04638671875	-244.3889617919922	660.2589111328125	1426.153076171875	-221.3397521972656	413.7694396972656	1365.255004882812	-177.4192352294922	486.6134643554688	1469	-358.4082641601562	583.592041015625	1473.399291992188	-393.3218994140625	595.2552490234375	1366.518432617188	-480.5784606933594	692.11669921875	1184.100830078125	-517.4933471679688	622.5059204101562	1133.08349609375	-501.5630493164062	861.4573974609375	1019.030944824219	-421.6676635742188	876.9732055664062	1003.73779296875	-503.1798706054688	767.0150146484375	1103.277587890625	-519.0867309570312	977.6710205078125	860.2571411132812	-419.0394897460938	936.0342407226562	937.6788940429688	-488.5533142089844	950.28955078125	956.1571655273438	-424.7113647460938	533.3714599609375	1469.158325195312	-70.70691680908203	507.7150268554688	1407.318115234375	-4.094547748565674	482.6786499023438	1130.725830078125	48.62032699584961	453.7346801757812	1120.7060546875	-40.83116149902344	623.8071899414062	917.3636474609375	14.77378273010254	571.5271606445312	902.844970703125	78.13360595703125	511.160888671875	1062.497192382812	64.52799224853516	642.26904296875	725.3388061523438	12.52490139007568	666.9030151367188	797.946044921875	33.94035720825195	613.6023559570312	796.962890625	82.63555908203125	517.772216796875	1656.247924804688	-187.217041015625	723.2946166992188	1707.661743164062	-269.4422607421875	716.6422119140625	1706.799560546875	-169.5676879882812	570.6124267578125	1665.197509765625	-316.4824829101562	562.494873046875	979.5680541992188	-421.1434020996094	536.7664794921875	980.611083984375	-55.83413314819336	630.09765625	1035.879028320312	-86.4864501953125	657.2161254882812	1025.630737304688	-365.4000244140625	591.8043823242188	497.6857604980469	-352.4708862304688	597.161376953125	642.2651977539062	-387.8487243652344	426.9187927246094	38.70174026489258	-324.966064453125	509.0457458496094	276.3423767089844	-350.1350708007812	634.0746459960938	34.96683120727539	-243.6135406494141	559.6503295898438	32.61558151245117	-210.7905426025391	554.3098754882812	31.00968551635742	-328.120361328125	360.1923217773438	55.57948684692383	-282.8643798828125	745.762451171875	530.3070068359375	-60.94683456420898	649.58447265625	782.4161376953125	-35.85081481933594	788.5216064453125	31.37353324890137	-76.26484680175781	783.2478637695312	416.0294189453125	-71.34750366210938	991.9230346679688	84.08925628662109	-91.85472869873047	943.6096801757812	72.19513702392578	-141.7209930419922	893.3782348632812	44.36433029174805	-39.36159133911133	732.8367919921875	26.27248191833496	-138.6282196044922	nan	nan	nan	nan	nan	nan	
316	3.15	450.630859375	1012.202575683594	-165.8988037109375	458.0921630859375	1024.927124023438	-283.8488159179688	448.5112915039062	1112.902709960938	-245.7483978271484	697.9210205078125	1307.25927734375	-220.3349914550781	441.0597229003906	1240.699462890625	-244.2428436279297	500.1467590332031	1502.69384765625	-243.2876281738281	668.2033081054688	1424.9443359375	-220.5963592529297	421.8139343261719	1363.75537109375	-176.2322998046875	494.2421264648438	1467.7158203125	-357.3804626464844	591.173583984375	1472.26220703125	-392.3157043457031	603.36474609375	1365.594848632812	-479.4368286132812	702.3099975585938	1184.413818359375	-516.2239990234375	633.4661254882812	1132.410400390625	-500.3422241210938	874.3082275390625	1023.180480957031	-418.9384155273438	890.3864135742188	1007.561584472656	-500.2839050292969	778.6215209960938	1104.87841796875	-517.20068359375	993.944580078125	867.1129150390625	-414.632080078125	950.8207397460938	942.96484375	-484.9635925292969	964.6031494140625	962.4698486328125	-421.3140258789062	541.6683349609375	1467.666625976562	-69.67112731933594	516.17724609375	1405.741943359375	-3.092992305755615	491.1750183105469	1129.183837890625	49.50610733032227	461.7164916992188	1119.339477539062	-39.87472915649414	630.1948852539062	914.4425048828125	15.3723783493042	578.2105712890625	900.7257080078125	79.10762023925781	519.2446899414062	1060.841430664062	65.35291290283203	646.0604248046875	722.1094970703125	13.29804706573486	671.8023681640625	794.4169921875	34.33253479003906	618.9405517578125	794.278564453125	83.48316955566406	525.716552734375	1654.94189453125	-186.2313537597656	731.1122436523438	1706.44091796875	-268.6392211914062	724.564453125	1705.55078125	-168.7513732910156	578.4066162109375	1663.9599609375	-315.55078125	570.6830444335938	978.65576171875	-420.341796875	546.1732788085938	978.9010009765625	-55.05133819580078	639.1925048828125	1034.61767578125	-85.84132385253906	665.5170288085938	1024.798706054688	-364.9403381347656	597.1248168945312	496.8890686035156	-352.4036254882812	603.5514526367188	641.4517822265625	-387.7548828125	427.1416625976562	39.30531311035156	-324.9397888183594	511.8297424316406	276.3858642578125	-350.1719055175781	634.1409912109375	34.98796081542969	-243.6749267578125	559.732421875	32.73691177368164	-210.8555450439453	554.3516845703125	30.9672679901123	-328.1468200683594	360.4302368164062	56.84412384033203	-282.8568115234375	754.4058837890625	528.4974365234375	-61.68499755859375	658.7352905273438	780.5750732421875	-35.41953277587891	811.259521484375	30.44405174255371	-77.24884796142578	794.7050170898438	415.3753051757812	-72.72898101806641	1013.591247558594	85.343505859375	-98.42216491699219	963.9300537109375	73.63076782226562	-146.9210205078125	917.2426147460938	43.76944732666016	-43.4058952331543	753.9849853515625	25.34784698486328	-138.0475769042969	nan	nan	nan	nan	nan	nan	
317	3.16	459.62158203125	1010.509033203125	-164.6438751220703	466.7332458496094	1023.4306640625	-282.5271911621094	457.0347595214844	1111.323486328125	-244.5685119628906	705.99169921875	1306.071411132812	-219.6887664794922	449.2397766113281	1239.177734375	-243.0089111328125	507.9378662109375	1501.309692382812	-242.1239624023438	676.1399536132812	1423.737182617188	-219.8174591064453	429.8809509277344	1362.1923828125	-174.988037109375	501.8221130371094	1466.403930664062	-356.2799072265625	598.7069702148438	1471.105834960938	-391.2770385742188	611.3328857421875	1364.6181640625	-478.2658386230469	712.12451171875	1184.565551757812	-514.9172973632812	644.0253295898438	1131.661376953125	-499.0166625976562	886.5951538085938	1027.123657226562	-416.2021179199219	903.1823120117188	1011.132202148438	-497.3860778808594	789.721435546875	1106.264526367188	-515.2850341796875	1009.461303710938	873.758056640625	-410.1900329589844	964.9230346679688	947.991455078125	-481.3701782226562	978.2525024414062	968.5037231445312	-417.9326171875	549.9646606445312	1466.133178710938	-68.57594299316406	524.6503295898438	1404.109008789062	-2.034053564071655	499.7526245117188	1127.5771484375	50.42489242553711	469.7216186523438	1117.895629882812	-38.89189529418945	636.6636352539062	911.4900512695312	15.97818470001221	585.001708984375	898.5806274414062	80.10951232910156	527.4205322265625	1059.129638671875	66.20407867431641	649.8839111328125	718.870849609375	14.0997896194458	676.7621459960938	790.862060546875	34.72713088989258	624.415283203125	791.5859985351562	84.37601470947266	533.620849609375	1653.636596679688	-185.1795654296875	738.8859252929688	1705.216064453125	-267.8087158203125	732.4564819335938	1704.28955078125	-167.9031524658203	586.1386108398438	1662.720336914062	-314.5564270019531	578.9100952148438	977.6892700195312	-419.4769287109375	555.676513671875	977.2081909179688	-54.19673919677734	648.38720703125	1033.322998046875	-85.13872528076172	673.8997802734375	1023.885131835938	-364.4354858398438	602.7506103515625	496.0030212402344	-352.2851867675781	610.123291015625	640.5601806640625	-387.5858154296875	427.3810729980469	39.9872932434082	-324.9347534179688	514.8115234375	276.413818359375	-350.1761474609375	634.2048950195312	35.00503921508789	-243.7402648925781	559.826416015625	32.88199996948242	-210.9362487792969	554.4061279296875	30.92166709899902	-328.1835632324219	360.7057189941406	58.21976470947266	-282.8802185058594	763.0970458984375	526.7384643554688	-62.54062271118164	668.0194091796875	778.7608032226562	-34.95748901367188	831.2501220703125	29.62070655822754	-78.79201507568359	805.6746215820312	414.6223449707031	-74.25511169433594	1032.6640625	85.84203338623047	-104.962760925293	981.77734375	74.45512390136719	-152.2114868164062	938.2630004882812	42.88387680053711	-47.74398422241211	772.5864868164062	24.75151824951172	-138.1446380615234	nan	nan	nan	nan	nan	nan	
